<svg width="210" height="46" viewBox="0 0 210 46" fill="none" xmlns="http://www.w3.org/2000/svg">
<g clip-path="url(#clip0_45_12210)">
<path d="M194.236 26.7586H191.563V45.0881H194.236V26.7586Z" fill="white"/>
<path d="M209.352 26.7586V29.333H202.36C202.051 29.333 201.845 29.333 201.743 29.23C201.743 29.4359 201.743 29.6419 201.743 29.9508V33.246C201.743 33.5549 201.743 33.7609 201.743 33.8638C201.948 33.8638 202.051 33.8638 202.36 33.8638H208.529V36.4382H202.36C202.051 36.4382 201.845 36.4382 201.743 36.3352C201.743 36.5412 201.743 36.7471 201.743 37.0561V41.8959C201.743 42.2048 201.743 42.4108 201.743 42.6167C201.948 42.6167 202.051 42.6167 202.36 42.6167H209.454V45.1911H198.966V26.8616H209.352V26.7586Z" fill="white"/>
<path d="M186.525 11.5183L187.861 14.8135C188.17 15.6373 188.478 16.0492 188.684 16.2551C188.478 15.9462 188.17 15.5343 187.861 14.7105L186.525 11.4153C186.113 10.4886 185.908 9.66476 185.908 9.25286C185.908 9.66476 186.216 10.5915 186.525 11.4153" fill="white"/>
<path d="M9.8712 15.7403H14.1899C15.2181 15.7403 15.7322 15.7403 15.9379 15.6373C15.9379 18.1087 13.8814 21.095 9.76838 21.095C5.65538 21.095 2.98193 18.3146 2.98193 14.2986C2.98193 10.2826 5.55255 7.50229 9.56273 7.50229C13.5729 7.50229 13.6757 8.42906 14.8068 9.45881L16.6577 7.19337C15.1153 5.85469 12.7503 4.72197 9.66555 4.72197C3.90735 4.72197 0 8.63501 0 14.2986C0 19.9622 4.21583 23.7723 9.76838 23.7723C15.3209 23.7723 19.0226 19.0355 19.0226 14.2986V13.3719H9.8712V15.6373V15.7403Z" fill="white"/>
<path d="M26.1176 12.651C25.9119 12.651 25.9119 12.651 25.8091 12.651C25.8091 12.651 25.8091 12.651 25.8091 12.754V12.5481H25.3978H25.5006C25.5006 12.4451 25.7063 12.2391 25.7063 11.9302V8.22311C25.7063 7.91419 25.5006 7.70824 25.5006 7.50229V7.39931V7.19336H25.9119V7.39931C25.9119 7.39931 25.9119 7.39931 26.2204 7.39931V7.19336H28.8939C30.7447 7.19336 31.5673 8.42906 31.5673 9.87071C31.5673 11.3124 30.6419 12.5481 28.8939 12.5481H26.2204L26.1176 12.651ZM28.8939 15.0195C29.6136 15.0195 29.5108 15.0195 29.8193 15.0195C31.8758 15.0195 34.3436 13.1659 34.3436 10.1796C34.3436 7.19336 32.1843 5.03089 28.6882 5.03089H22.7244V23.3604H25.8091V15.9462C25.8091 15.6373 25.6035 15.4313 25.6035 15.2254V15.4313C25.7063 15.4313 25.8091 15.7403 26.1176 15.7403H26.4261L32.904 23.3604H36.4001L30.8475 16.4611C30.2306 15.6373 29.7165 15.2254 28.8939 15.0195Z" fill="white"/>
<path d="M52.6465 5.03089H40.5132L39.1764 7.29634H46.1685C47.2996 7.29634 47.8137 7.29634 48.225 7.09039V7.29634L38.1482 23.2574C38.1482 23.3604 51.207 23.3604 51.207 23.3604L52.5437 21.095H44.2149C43.2894 21.095 42.981 21.095 42.5697 21.4039C42.5697 21.3009 52.6465 5.23684 52.6465 5.23684V5.03089Z" fill="white"/>
<path d="M56.3481 23.3604H67.0419V21.095H59.7414C59.4329 21.095 59.2272 21.095 59.1244 21.095H59.2272C59.2272 20.889 59.4329 20.5801 59.4329 20.2712V15.4313C59.4329 15.1224 59.2272 14.9165 59.2272 14.7105C59.4329 14.8135 59.4329 14.9165 59.8442 14.9165H66.425V12.651H59.8442C59.5357 12.651 59.3301 12.4451 59.2272 12.5481V12.3421C59.4329 12.2391 59.5357 11.9302 59.5357 11.5183V8.22311C59.5357 7.91419 59.3301 7.70824 59.3301 7.50229V7.29634C59.4329 7.29634 59.5357 7.29634 59.8442 7.29634H67.1448V5.03089H56.451V23.3604H56.3481Z" fill="white"/>
<path d="M79.9978 15.7403H84.008C85.0362 15.7403 85.5503 15.7403 85.756 15.6373C85.756 18.1087 83.6995 21.095 79.5865 21.095C75.4735 21.095 72.8 18.3146 72.8 14.2986C72.8 10.2826 75.3707 7.50229 79.3808 7.50229C83.391 7.50229 83.4938 8.42906 84.6249 9.45881L86.4758 7.19337C84.9334 5.85469 82.5684 4.72197 79.4837 4.72197C73.7255 4.72197 69.8181 8.73799 69.8181 14.2986C69.8181 19.8593 74.2396 23.7723 79.6893 23.7723C85.139 23.7723 89.1492 19.0355 89.1492 14.2986V13.3719H79.9978V15.6373V15.7403Z" fill="white"/>
<path d="M96.0385 12.651C95.8329 12.651 95.6272 12.651 95.5244 12.651C95.5244 12.651 95.5244 12.651 95.4216 12.651C95.4216 12.651 95.4216 12.4451 95.4216 12.3421C95.4216 12.2391 95.4216 12.1362 95.4216 11.9302V8.22311C95.4216 8.01716 95.4216 7.91419 95.4216 7.81121C95.4216 7.70824 95.4216 7.60526 95.4216 7.50229C95.5244 7.50229 95.73 7.50229 95.8329 7.50229C95.8329 7.50229 95.9357 7.39931 96.0385 7.39931H98.712C100.563 7.39931 101.385 8.63501 101.385 10.0767C101.385 11.5183 100.46 12.754 98.712 12.754H96.0385V12.651ZM99.1233 15.0195C99.1233 15.0195 99.6374 15.0195 99.9459 15.0195C102.002 15.0195 104.47 13.1659 104.47 10.1796C104.47 7.19336 102.208 5.03089 98.8148 5.03089H93.1594V23.3604H95.4216V15.9462C95.4216 15.6373 95.4216 15.4313 95.4216 15.2254V15.4313C95.6272 15.4313 95.8329 15.7403 96.1414 15.7403H96.4498L102.928 23.3604H106.424L100.974 16.4611C100.357 15.6373 99.9459 15.2254 99.2261 15.0195" fill="white"/>
<path d="M122.567 5.03089H110.434L109.097 7.29634H116.089C117.221 7.29634 117.735 7.29634 118.146 7.09039V7.29634L108.069 23.2574C108.069 23.3604 121.128 23.3604 121.128 23.3604L122.465 21.095H114.136C113.21 21.095 112.902 21.095 112.491 21.4039C112.491 21.3009 122.567 5.23684 122.567 5.23684V5.03089Z" fill="white"/>
<path d="M166.988 13.6808C167.708 13.2689 167.605 13.0629 168.324 12.2391L174.494 4.92792H170.792L163.903 13.1659H164.211C164.314 12.3421 164.726 11.7243 164.726 10.1796V4.92792H161.641V23.2574H164.726V17.0789C164.726 15.4313 164.314 14.8135 164.109 13.9897L171.718 23.2574H175.419L168.222 14.8135C167.605 14.0927 167.81 13.9897 167.091 13.6808" fill="white"/>
<path d="M187.861 14.8135C188.17 15.6373 188.478 16.0492 188.684 16.3581C188.478 16.3581 187.964 16.4611 187.244 16.4611H184.468C183.646 16.4611 183.234 16.4611 183.029 16.4611C183.234 16.1522 183.543 15.7403 183.851 14.9165L185.188 11.8272C185.599 10.9005 185.805 9.76773 185.805 9.76773H185.908C185.908 9.76773 186.216 10.9005 186.525 11.8272L187.861 15.0194V14.8135ZM185.702 4.20709L176.962 23.2574H180.047L182.206 18.6236H189.507L191.666 23.2574H194.751L186.011 4.20709H185.702Z" fill="white"/>
<path d="M185.085 11.5183C185.496 10.5915 185.702 9.76773 185.702 9.35583C185.702 9.76773 185.394 10.6945 185.085 11.5183L183.748 14.8135C183.44 15.6373 183.131 16.0492 182.926 16.3581C183.131 16.1522 183.44 15.7403 183.748 14.9165L185.085 11.6213V11.5183Z" fill="white"/>
<path d="M150.536 20.992C150.227 20.992 150.227 20.992 150.227 20.992V15.6373H149.919L156.705 4.92792H154.238L149.816 11.9302C150.022 11.3124 150.125 10.4886 150.125 9.25286V7.19336H147.04V23.2574H157.734V20.992H150.433H150.536Z" fill="white"/>
<path d="M142.927 14.0927C142.927 10.5915 141.384 7.70824 138.814 6.06064C138.814 6.06064 136.963 8.32609 137.066 8.42906C138.814 9.66476 139.945 11.6213 139.945 14.1957C139.945 16.3581 139.122 18.2117 137.683 19.4474C136.552 20.4771 135.112 20.992 133.364 20.992C131.616 20.992 130.691 20.5801 129.662 19.9622C127.914 18.7265 126.783 16.667 126.783 14.1957C126.783 12.0332 127.709 10.0767 129.148 8.84096L127.709 6.26659C125.241 7.91419 123.801 10.7975 123.801 14.1957C123.801 19.7563 127.811 23.7723 133.364 23.7723C138.917 23.7723 142.927 19.7563 142.927 14.1957" fill="white"/>
<path d="M137.58 1.7357C136.14 3.28032 135.523 4.10412 135.523 4.10412C135.523 4.10412 133.878 5.95767 133.364 6.47254C132.953 6.98741 132.747 7.50229 132.747 7.50229C132.747 7.50229 132.747 6.88444 132.336 6.47254C132.336 6.36956 131.616 5.03089 131.616 5.03089C130.896 4.00114 128.737 4.41304 128.737 4.41304L130.074 6.88444L132.336 11.0034L135.626 7.19336L137.477 5.03089L141.281 0.5C141.281 0.5 139.019 0.0881002 137.58 1.63272" fill="white"/>
<path d="M116.295 26.7586V41.8959C116.295 42.2048 116.295 42.4108 116.295 42.5137C116.501 42.5137 116.604 42.5137 116.912 42.5137H124.11V45.0881H113.519V26.7586H116.192H116.295Z" fill="white"/>
<path d="M127.195 35.9233C127.195 39.8364 129.868 42.7197 133.775 42.7197C137.683 42.7197 140.356 39.9394 140.356 35.9233C140.356 31.9073 137.683 29.127 133.775 29.127C129.868 29.127 127.195 31.9073 127.195 35.9233ZM143.235 35.9233C143.235 41.484 139.225 45.5 133.673 45.5C128.12 45.5 124.11 41.484 124.11 35.9233C124.11 30.3627 128.12 26.3467 133.673 26.3467C139.225 26.3467 143.235 30.3627 143.235 35.9233Z" fill="white"/>
<path d="M156.808 26.7586V29.333H152.284C151.975 29.333 151.77 29.333 151.667 29.23C151.667 29.4359 151.667 29.6419 151.667 29.9508V45.0881H148.994V29.9508C148.994 29.6419 148.994 29.4359 148.994 29.333C148.788 29.333 148.685 29.333 148.377 29.333H143.852V26.7586H156.911H156.808Z" fill="white"/>
<path d="M170.175 26.7586V29.333H163.183C162.875 29.333 162.669 29.333 162.566 29.23C162.566 29.4359 162.566 29.6419 162.566 29.9508V33.246C162.566 33.5549 162.566 33.7609 162.566 33.8638C162.772 33.8638 162.875 33.8638 163.183 33.8638H169.353V36.4382H163.183C162.875 36.4382 162.669 36.4382 162.566 36.3352C162.566 36.5412 162.566 36.7471 162.566 37.0561V41.8959C162.566 42.2048 162.566 42.4108 162.566 42.6167C162.772 42.6167 162.875 42.6167 163.183 42.6167H170.278V45.1911H159.79V26.8616H170.175V26.7586Z" fill="white"/>
<path d="M177.476 29.23C177.476 29.333 177.476 29.5389 177.476 29.9508V33.6579C177.476 33.9668 177.476 34.1728 177.476 34.2757C177.682 34.2757 177.784 34.2757 178.093 34.2757H180.766C182.514 34.2757 183.44 33.349 183.44 31.8043C183.44 30.2597 182.617 29.333 180.766 29.333H178.093C177.784 29.333 177.579 29.333 177.476 29.23ZM180.766 26.7586C184.16 26.7586 186.422 28.7151 186.422 31.9073C186.422 35.0995 183.954 36.7471 181.897 36.7471C179.841 36.7471 181.28 36.7471 180.972 36.6442C181.692 36.9531 182.206 37.468 182.823 38.1888L188.375 45.0881H184.879L178.401 36.8501H178.093C177.784 36.8501 177.579 36.8501 177.476 36.7471C177.476 36.9531 177.476 37.159 177.476 37.468V44.9851H174.802V26.6556H180.766V26.7586Z" fill="white"/>
</g>
<defs>
<clipPath id="clip0_45_12210">
<rect width="209.455" height="45" fill="white" transform="translate(0 0.5)"/>
</clipPath>
</defs>
</svg>
